HIERARCHY
ROOT Hips
{
	OFFSET -0.001795 -0.223333 0.028219
	CHANNELS 6 Xposition Yposition Zposition Zrotation Yrotation Xrotation 
	JOINT LeftUpLeg
	{
		OFFSET 0.069520 -0.091406 -0.006815
		CHANNELS 3 Zrotation Yrotation Xrotation
		JOINT LeftLeg
		{
			OFFSET 0.034277 -0.375199 -0.004496
			CHANNELS 3 Zrotation Yrotation Xrotation
			JOINT LeftFoot
			{
				OFFSET -0.013596 -0.397961 -0.043693
				CHANNELS 3 Zrotation Yrotation Xrotation
				JOINT LeftToe
				{
					OFFSET 0.026358 -0.055791 0.119288
					CHANNELS 3 Zrotation Yrotation Xrotation
					End Site
					{
						OFFSET 0.000000 0.000000 0.000000
					}
				}
			}
		}
	}
	JOINT RightUpLeg
	{
		OFFSET -0.067670 -0.090522 -0.004320
		CHANNELS 3 Zrotation Yrotation Xrotation
		JOINT RightLeg
		{
			OFFSET -0.038290 -0.382569 -0.008850
			CHANNELS 3 Zrotation Yrotation Xrotation
			JOINT RightFoot
			{
				OFFSET 0.015774 -0.398415 -0.042312
				CHANNELS 3 Zrotation Yrotation Xrotation
				JOINT RightToe
				{
					OFFSET -0.025372 -0.048144 0.123348
					CHANNELS 3 Zrotation Yrotation Xrotation
					End Site
					{
						OFFSET 0.000000 0.000000 0.000000
					}
				}
			}
		}
	}
	JOINT Spine
	{
		OFFSET -0.002533 0.108963 -0.026696
		CHANNELS 3 Zrotation Yrotation Xrotation
		JOINT Spine1
		{
			OFFSET 0.005487 0.135180 0.001092
			CHANNELS 3 Zrotation Yrotation Xrotation
			JOINT Spine2
			{
				OFFSET 0.001457 0.052922 0.025425
				CHANNELS 3 Zrotation Yrotation Xrotation
				JOINT Neck
				{
					OFFSET -0.002778 0.213870 -0.042857
					CHANNELS 3 Zrotation Yrotation Xrotation
					JOINT Head
					{
						OFFSET 0.005152 0.064970 0.051349
						CHANNELS 3 Zrotation Yrotation Xrotation
						End Site
						{
							OFFSET 0.000000 0.000000 0.000000
						}
					}
				}
				JOINT LeftShoulder
				{
					OFFSET 0.078845 0.121749 -0.034090
					CHANNELS 3 Zrotation Yrotation Xrotation
					JOINT LeftArm
					{
						OFFSET 0.090977 0.030469 -0.008868
						CHANNELS 3 Zrotation Yrotation Xrotation
						JOINT LeftForeArm
						{
							OFFSET 0.259612 -0.012772 -0.027456
							CHANNELS 3 Zrotation Yrotation Xrotation
							JOINT LeftHand
							{
								OFFSET 0.249234 0.008986 -0.001171
								CHANNELS 3 Zrotation Yrotation Xrotation
								End Site
								{
									OFFSET 0.000000 0.000000 0.000000
								}
							}
						}
					}
				}
				JOINT RightShoulder
				{
					OFFSET -0.081759 0.118833 -0.038615
					CHANNELS 3 Zrotation Yrotation Xrotation
					JOINT RightArm
					{
						OFFSET -0.096012 0.032551 -0.009143
						CHANNELS 3 Zrotation Yrotation Xrotation
						JOINT RightForeArm
						{
							OFFSET -0.253742 -0.013329 -0.021401
							CHANNELS 3 Zrotation Yrotation Xrotation
							JOINT RightHand
							{
								OFFSET -0.255298 0.007772 -0.005559
								CHANNELS 3 Zrotation Yrotation Xrotation
								End Site
								{
									OFFSET 0.000000 0.000000 0.000000
								}
							}
						}
					}
				}
			}
		}
	}
}
MOTION
Frames: 7
Frame Time: 0.050000
0.770535 0.925827 0.541888 0.164947 7.794062 7.045111 1.474368 -2.349561 -24.860928 5.486427 -2.986496 23.170228 -3.611178 -8.800731 -0.987525 0.000000 0.000000 0.000000 -0.830945 2.190810 -28.692182 -14.011442 5.734847 29.274467 8.239798 20.770574 0.562480 0.000000 0.000000 0.000000 1.316522 -2.807809 33.950645 -1.537102 0.383849 8.074493 -3.621025 2.612423 1.773326 2.306458 1.911519 -32.453191 0.000000 0.000000 0.000000 -24.397110 -42.224811 22.496995 -16.419764 -28.172404 1.144190 45.560998 -29.678184 -11.428098 0.000000 0.000000 0.000000 12.734451 32.848843 16.987497 22.473803 32.438120 2.548965 -51.381036 39.546510 -15.842750 0.000000 0.000000 0.000000 
0.752969 0.927641 0.549893 1.072165 10.564082 5.579440 1.408469 -2.152075 -22.126593 6.593796 -3.213500 21.259030 -5.076842 -11.509020 -0.147758 0.000000 0.000000 0.000000 -0.360446 1.976923 -26.042048 -15.819309 6.003746 28.463093 9.416834 23.767252 0.216901 0.000000 0.000000 0.000000 1.926761 -3.101301 32.448193 -1.933099 0.594288 6.667665 -3.295451 3.193603 2.896296 1.901813 2.223323 -31.973648 0.000000 0.000000 0.000000 -28.081733 -39.082984 20.537134 -20.663027 -25.094665 1.624036 44.589345 -37.274769 -14.430784 0.000000 0.000000 0.000000 12.992035 31.042506 16.376641 24.291964 30.765400 2.535001 -48.874376 42.299726 -15.958660 0.000000 0.000000 0.000000 
0.734228 0.932267 0.558875 1.676867 13.033941 4.384524 1.697824 -1.850780 -19.346312 7.242014 -3.025072 18.135625 -6.836163 -14.097505 1.357346 0.000000 0.000000 0.000000 0.081997 1.796800 -23.126340 -16.576669 5.837963 27.068037 10.680725 26.292853 0.524946 0.000000 0.000000 0.000000 2.237508 -3.184307 30.756603 -2.421837 0.857004 5.568667 -2.662166 3.874328 3.530241 1.531954 2.548577 -31.617133 0.000000 0.000000 0.000000 -31.450893 -34.698048 17.126896 -24.399062 -21.910728 1.884787 41.270997 -44.162426 -16.131182 0.000000 0.000000 0.000000 13.465821 29.180376 15.819086 24.491513 29.607900 2.281134 -44.959479 45.508035 -15.588123 0.000000 0.000000 0.000000 
0.714213 0.937816 0.567973 2.703989 15.572505 3.771981 1.561638 -1.589859 -16.641150 8.064941 -2.683089 14.281520 -8.642439 -16.750674 2.684467 0.000000 0.000000 0.000000 -0.049954 1.526836 -19.940018 -16.297572 5.180701 24.149319 11.031389 27.224589 0.136826 0.000000 0.000000 0.000000 2.952825 -3.216397 28.281617 -3.539655 1.430195 4.665244 -2.607691 4.543379 4.234675 1.550807 2.778836 -31.769986 0.000000 0.000000 0.000000 -32.614701 -32.186176 14.385334 -27.772606 -17.944251 1.717412 39.158532 -49.427123 -17.570171 0.000000 0.000000 0.000000 14.422644 27.192798 15.494299 25.996182 27.494717 1.955595 -43.175203 48.693956 -15.797637 0.000000 0.000000 0.000000 
0.692172 0.942400 0.576267 3.657280 19.364754 3.224833 2.579784 -1.290670 -14.367064 7.413060 -1.913502 9.990517 -11.532946 -19.750601 5.641467 0.000000 0.000000 0.000000 -0.804354 1.128270 -15.919553 -14.701652 4.124164 20.679452 11.343356 27.716687 -0.064417 0.000000 0.000000 0.000000 3.616225 -3.323497 26.307935 -4.350860 1.782547 4.341851 -2.278659 5.115254 3.738772 1.190173 3.154361 -31.071715 0.000000 0.000000 0.000000 -34.830344 -29.532804 11.300406 -29.514707 -14.012626 1.425091 34.099962 -53.289323 -16.710429 0.000000 0.000000 0.000000 15.858342 24.728276 15.129218 25.813574 26.410537 1.566246 -39.098968 51.426838 -14.679271 0.000000 0.000000 0.000000 
0.667384 0.944413 0.583560 4.648078 23.630103 3.446109 4.263933 -1.141367 -13.398267 6.382942 -1.278003 6.738282 -13.572273 -21.282454 7.925760 0.000000 0.000000 0.000000 -1.821617 0.787461 -12.982179 -12.832044 3.228993 17.936023 10.242318 25.423293 -1.001101 0.000000 0.000000 0.000000 4.514619 -3.293257 23.532047 -5.780230 2.348294 4.818836 -2.100298 5.604664 3.195869 0.257353 3.839504 -31.671042 0.000000 0.000000 0.000000 -34.392431 -27.633709 8.412448 -31.155086 -11.122140 1.200455 31.133353 -55.811673 -16.477486 0.000000 0.000000 0.000000 17.105095 22.422629 14.868642 26.255213 24.758833 1.128499 -34.243947 53.716423 -12.796333 0.000000 0.000000 0.000000 
0.640163 0.944555 0.589756 4.337888 28.339543 3.334868 6.468696 -1.128721 -13.371985 6.051126 -0.994228 5.059244 -14.309672 -20.173002 9.838034 0.000000 0.000000 0.000000 -0.681122 0.801664 -11.349445 -11.333598 2.635088 17.540248 8.963679 23.007965 -2.651699 0.000000 0.000000 0.000000 5.257489 -3.295135 21.452316 -6.598342 2.647895 4.112094 -0.472715 5.893190 2.722774 -1.038214 4.578621 -31.052748 0.000000 0.000000 0.000000 -35.734831 -24.844411 4.952608 -32.152708 -7.195611 0.672633 27.846030 -60.089886 -16.331375 0.000000 0.000000 0.000000 15.815689 21.606566 14.501738 29.272425 23.332635 1.186001 -30.462424 55.979414 -11.052211 0.000000 0.000000 0.000000 
